<svg id="Capa_1" enable-background="new 0 0 512 512" height="512" viewBox="0 0 512 512" width="512" xmlns="http://www.w3.org/2000/svg"><g><g><path d="m497 31h-482c-8.28 0-15 6.72-15 15v330c0 8.28 6.72 15 15 15h482c8.28 0 15-6.72 15-15v-330c0-8.28-6.72-15-15-15zm-158.72 193.11-135 75c-9.97 5.55-22.28-1.69-22.28-13.11v-150c0-11.42 12.3-18.66 22.28-13.11l135 75c10.27 5.7 10.28 20.51 0 26.22zm-127.28 36.4 89.11-49.51-89.11-49.51z"/></g><g><path d="m356.61 455.39-34.39-34.39h-132.44l-34.39 34.39c-9.44 9.45-2.71 25.61 10.61 25.61h180c13.34 0 20.03-16.18 10.61-25.61z"/></g></g></svg>